<svg xmlns="http://www.w3.org/2000/svg" width="1200" height="630" viewBox="0 0 1200 630">
  <defs>
    <linearGradient id="paper" x1="0" x2="1" y1="0" y2="1">
      <stop offset="0" stop-color="#f8f6ef"/>
      <stop offset="1" stop-color="#e9efeb"/>
    </linearGradient>
    <clipPath id="portrait">
      <path d="M890 102c104 0 188 84 188 188v238H702V290c0-104 84-188 188-188Z"/>
    </clipPath>
    <filter id="shadow" x="-20%" y="-20%" width="140%" height="140%">
      <feDropShadow dx="0" dy="18" stdDeviation="22" flood-color="#082f30" flood-opacity=".16"/>
    </filter>
  </defs>
  <rect width="1200" height="630" fill="url(#paper)"/>
  <path d="M0 0h28v630H0z" fill="#0f7777"/>
  <circle cx="1100" cy="-25" r="260" fill="none" stroke="#0f7777" stroke-opacity=".12" stroke-width="2"/>
  <circle cx="1100" cy="-25" r="198" fill="none" stroke="#0f7777" stroke-opacity=".09" stroke-width="32"/>
  <text x="88" y="110" fill="#0f7777" font-family="Arial, Helvetica, sans-serif" font-size="22" font-weight="700" letter-spacing="4">PRODUCTION ML · CAUSAL EXPERIMENTATION</text>
  <text x="82" y="224" fill="#142828" font-family="Georgia, Times New Roman, serif" font-size="76" letter-spacing="-4">Sergio A.</text>
  <text x="82" y="304" fill="#142828" font-family="Georgia, Times New Roman, serif" font-size="76" letter-spacing="-4">Mora Pardo</text>
  <text x="88" y="370" fill="#0f7777" font-family="Arial, Helvetica, sans-serif" font-size="28" font-weight="700">AI/ML Technical Lead &amp; Senior Data Scientist</text>
  <text x="88" y="435" fill="#5f6e6c" font-family="Arial, Helvetica, sans-serif" font-size="24">Building reliable machine learning systems</text>
  <text x="88" y="469" fill="#5f6e6c" font-family="Arial, Helvetica, sans-serif" font-size="24">from problem framing to production impact.</text>
  <g filter="url(#shadow)">
    <path d="M890 86c113 0 204 91 204 204v254H686V290c0-113 91-204 204-204Z" fill="#d8ece8"/>
    <image href="profile/sergio-mora.jpg" x="702" y="102" width="376" height="426" preserveAspectRatio="xMidYMid slice" clip-path="url(#portrait)"/>
  </g>
  <rect x="88" y="538" width="310" height="3" fill="#d99b4a"/>
  <text x="88" y="577" fill="#142828" font-family="Arial, Helvetica, sans-serif" font-size="20" font-weight="700">sergiomorapardo.github.io</text>
</svg>
